<svg
   xmlns:dc="http://purl.org/dc/elements/1.1/"
   xmlns:cc="http://creativecommons.org/ns#"
   xmlns:rdf="http://www.w3.org/1999/02/22-rdf-syntax-ns#"
   xmlns:svg="http://www.w3.org/2000/svg"
   xmlns="http://www.w3.org/2000/svg"
   xmlns:sodipodi="http://sodipodi.sourceforge.net/DTD/sodipodi-0.dtd"
   xmlns:inkscape="http://www.inkscape.org/namespaces/inkscape"
   width="25mm"
   height="25mm"
   viewBox="0 0 51.349003 54.005344"
   version="1.1"
   id="svg8"
   inkscape:version="0.92.3 (2405546, 2018-03-11)"
   sodipodi:docname="Dog Silhouette Logo.svg">
  <title
     id="title859">Dog Silhouette Logo</title>
  <defs
     id="defs2" />
  <sodipodi:namedview
     id="base"
     pagecolor="#ffffff"
     bordercolor="#666666"
     borderopacity="1.0"
     inkscape:pageopacity="0.0"
     inkscape:pageshadow="2"
     inkscape:zoom="0.24748737"
     inkscape:cx="-68.100065"
     inkscape:cy="612.82201"
     inkscape:document-units="mm"
     inkscape:current-layer="layer1"
     showgrid="false"
     fit-margin-top="0"
     fit-margin-left="0"
     fit-margin-right="0"
     fit-margin-bottom="0"
     inkscape:window-width="1920"
     inkscape:window-height="986"
     inkscape:window-x="1589"
     inkscape:window-y="-11"
     inkscape:window-maximized="1" />
  <metadata
     id="metadata5">
    <rdf:RDF>
      <cc:Work
         rdf:about="">
        <dc:format>image/svg+xml</dc:format>
        <dc:type
           rdf:resource="http://purl.org/dc/dcmitype/StillImage" />
        <dc:title>Dog Silhouette Logo</dc:title>
        <cc:license
           rdf:resource="http://creativecommons.org/publicdomain/zero/1.0/" />
      </cc:Work>
      <cc:License
         rdf:about="http://creativecommons.org/publicdomain/zero/1.0/">
        <cc:permits
           rdf:resource="http://creativecommons.org/ns#Reproduction" />
        <cc:permits
           rdf:resource="http://creativecommons.org/ns#Distribution" />
        <cc:permits
           rdf:resource="http://creativecommons.org/ns#DerivativeWorks" />
      </cc:License>
    </rdf:RDF>
  </metadata>
  <g
     inkscape:label="Layer 1"
     inkscape:groupmode="layer"
     id="layer1"
     transform="translate(-38.747461,-290.53684)">
    <g
       id="g857"
       transform="matrix(0.11407971,0,0,0.11407971,34.327162,305.23696)"
       style="stroke-width:8.76580048">
      <path
         transform="scale(0.26458333)"
         id="path830"
         d="m 997.64258,-487.02344 c -40.61945,-0.0185 -58.26243,0.84031 -92.5,4.50196 -151.31857,16.18321 -296.22755,73.2882 -417.9043,164.68554 -56.02363,42.08213 -109.40195,93.57127 -152.35156,146.95703 -58.22457,72.372351 -103.13639,151.315784 -135.54883,238.255863 -47.40491,127.154537 -63.38535,266.714977 -46.1543,403.097657 21.16124,167.48957 91.04646,323.27564 202.5,451.40234 18.45275,21.21321 29.12538,32.15922 30.22461,31 0.52158,-0.54999 1.47865,-6.175 2.12696,-12.5 7.55376,-73.70048 29.28422,-146.96423 56.61523,-190.87304 7.02996,-11.29399 12.91022,-18.51743 30.71289,-37.73633 23.00062,-24.8304 31.53584,-36.90044 44.77149,-63.30664 10.52579,-20.99993 17.63866,-37.42427 39.20703,-90.53906 17.19031,-42.33328 28.02942,-67.01385 39.54492,-90.04493 24.35051,-48.70125 38.09069,-71.09487 63.83203,-104.03125 32.86832,-42.05538 36.39361,-49.70219 41.8418,-90.76172 5.07152,-38.22097 15.85642,-70.89821 33.12304,-100.36132 9.24594,-15.7769 14.157,-22.09534 27.08203,-34.84571 7.04977,-6.95446 13.09571,-13.86176 14.38086,-16.42773 6.20138,-12.38168 2.8126,-29.411117 -15.87304,-79.765626 -17.73816,-47.8010913 -18.15057,-49.7259035 -18.83399,-87.644532 l -0.51953,-28.835937 -6.63867,-5.34375 c -3.65106,-2.939221 -10.13707,-8.091075 -14.41406,-11.447266 -8.91141,-6.992878 -15.65152,-15.552009 -18.73633,-23.796879 -1.1754,-3.14154 -2.66609,-6.04978 -3.3125,-6.46093 -0.64645,-0.41115 -4.55077,-0.76116 -8.67578,-0.7793 -8.67515,-0.0378 -18.99216,-2.01664 -25.48047,-4.88672 -5.50753,-2.43624 -6.72737,-5.07263 -6.66992,-14.41992 0.0535,-8.73783 2.26465,-16.20513 6.20508,-20.96094 3.2626,-3.93771 29.16843,-25.21972 51.44531,-42.26367 15.81959,-12.1035 26.47051,-20.93318 41.1875,-34.14063 18.13266,-16.27271 21.5439,-17.05208 42.87109,-9.80468 23.36606,7.94022 31.38445,7.41718 61.44141,-4.00977 9.07502,-3.4501 19.65002,-7.06426 23.5,-8.03125 11.04412,-2.77394 24.03589,-2.33152 44,1.49805 21.30697,4.08718 27.21646,3.85547 37.32617,-1.45703 9.94469,-5.2258 21.44616,-14.87645 31.37305,-26.32422 14.9667,-17.25982 20.3854,-19.71937 43.3008,-19.65625 14.3725,0.0396 15.348,0.17347 23.3242,3.20703 17.76,6.75466 35.5716,22.23943 46.082,40.06055 2.9734,5.04162 6.358,9.7904 7.5215,10.55273 2.1653,1.41876 20.74,7.75102 28.2559,9.63281 3.334,0.83475 5.3627,2.41454 9.9863,7.77735 3.1909,3.70114 11.2693,12.42586 17.9531,19.39062 32.5229,33.88969 57.8288,65.90704 67.4512,85.33789 6.839,13.81033 9.0127,22.99752 8.9824,37.949222 -0.032,15.035811 -0.2558,15.348763 -9.7754,13.839844 -12.3595,-1.95902 -22.047,-6.983761 -35.4687,-18.400391 -4.6357,-3.943155 -7.2069,-3.433335 -11.3125,2.248047 -4.3518,6.022133 -18.5296,17.523849 -34.9238,28.330078 -11.5592,7.619203 -14.6444,10.151716 -16.1133,13.228516 -2.7447,5.749069 -3.1048,21.853906 -0.8828,39.402343 4.968,39.237151 0.9998,64.005074 -16.2129,101.189453 -8.4164,18.181968 -14.2809,32.904088 -14.5137,36.437498 -0.1005,1.52595 0.3989,5.96179 1.1113,9.85742 1.8903,10.33742 0.9479,23.11394 -2.4492,33.17969 l -2.7891,8.26367 2.1797,6.73633 c 6.0241,18.62088 24.8173,50.78288 56.5137,96.71875 19.8977,28.8366 25.3066,37.53114 31.1172,50.01953 9.0583,19.46863 12.3828,33.9313 13.1601,57.23438 0.413,12.37655 0.2486,17.62734 -0.5859,18.63281 -1.6056,1.93467 -3.3232,11.49766 -8.0117,44.63281 -9.5128,67.23081 -22.627,179.5414 -28.0234,240 -4.9422,55.3697 -6.6255,83.91271 -8.5547,145 -3.0423,96.332 -5.6582,132.03011 -12.6407,172.50005 -6.4579,37.4293 -7.064,42.949 -6.6328,60.5 0.4424,18.0035 2.3189,28.5518 6.086,34.207 2.269,3.4063 6.9529,6.6955 25.3281,17.793 14.3256,8.6518 25.1451,19.1434 28.3613,27.5 3.2827,8.5295 3.8346,24.3789 1.1738,33.7246 -1.0531,3.6986 -1.6619,6.9767 -1.3535,7.2851 0.7792,0.7792 4.0061,0 25.1563,-6.0547 120.5452,-34.5186 229.9529,-94.4899 327.5,-179.5175 17.5708,-15.31586 61.1661,-59.04414 76.9472,-77.18364 98.3238,-113.0174 163.7624,-244.29098 193.5411,-388.25391 26.2677,-126.98982 22.9798,-260.3111 -9.5274,-386.38281 -37.6864,-146.158737 -114.3042,-279.95648 -221.9629,-387.61523 -130.9934,-130.99333 -298.9739,-215.04315 -481.498,-240.92188 -41.9805,-5.95211 -72.016,-7.95779 -119.50002,-7.98047 z m 41.49802,195.55469 c -3.0499,0.0572 -6.0645,0.3085 -8.998,0.76563 -11.7125,1.82505 -16.4794,4.52388 -25.0488,14.18164 -23.25847,26.21223 -38.29163,36.81792 -52.27153,36.875 -3.20081,0.013 -12.57911,-1.32658 -20.8418,-2.97657 -17.2574,-3.44621 -30.3957,-3.90392 -42.02149,-1.46484 -4.02345,0.84412 -16.54139,4.62619 -27.8164,8.40625 -31.89415,10.69285 -37.38975,10.97474 -60.03906,3.07617 -21.49081,-7.49458 -26.76229,-5.95311 -47.32032,13.83203 -6.67729,6.42627 -21.59061,18.97118 -33.14062,27.87696 -29.20774,22.52104 -52.67127,41.45218 -53.91016,43.49609 -0.74003,1.22067 -0.7102,2.05539 0.10156,2.86719 1.81202,1.81199 15.20079,4.64107 25.69336,5.42773 l 9.60157,0.71875 1.11132,4.12695 c 2.78177,10.33074 10.09001,19.10387 25.93946,31.14258 10.65585,8.093834 15.58397,13.20162 16.65429,17.261721 0.80126,3.039398 0.8596,8.076372 0.41993,35.732422 -0.42203,26.545701 0.76954,31.605113 18.76757,79.789063 14.86613,39.799279 19.13571,57.687618 19.10547,80.060544 -0.0269,20.95461 -2.58609,27.19346 -17.22851,42.01563 -11.83567,11.98091 -17.8208,19.18672 -25.03516,30.13476 -18.79627,28.52404 -30.29814,62.78853 -36.72851,109.42383 -2.37963,17.25787 -5.01144,27.59083 -10.00586,39.27734 -5.26114,12.3107 -10.88972,20.92235 -31.89649,48.79883 -20.35593,27.01278 -29.14572,39.98294 -40.33203,59.51172 -22.58702,39.43189 -41.76337,80.69881 -68.89062,148.25 -32.05709,79.82721 -46.93135,106.59568 -77.44336,139.3711 -20.5005,22.0213 -30.49771,35.30901 -39.77539,52.86718 -22.73061,43.01813 -39.63084,103.62579 -46.56446,167 -7.59061,69.37925 -2.85313,133.33735 13.55274,183.00005 4.76976,14.4387 14.65468,35.9419 20.96093,45.5957 3.5909,5.4967 3.85819,6.4168 3.88086,13.3339 l 0.0215,7.4297 -13.5,5.1797 c -7.425,2.849 -26.03015,10.4529 -41.3457,16.8965 -64.77808,27.2536 -81.1406,32.0591 -141.4043,41.5293 -27.18913,4.2727 -47.7503,8.4379 -62.21289,12.6035 -17.99225,5.1823 -18.51911,5.6419 -12.78711,11.1777 9.12397,8.8119 35.72036,15.0612 77.25,18.1524 v 0 c 16.29328,1.2122 53.55184,1.245 70.3125,0.062 56.77126,-4.0053 120.13688,-17.7515 177.02539,-38.4043 16.83258,-6.1109 46.15529,-17.9523 52.21875,-21.0878 1.56397,-0.8089 3.07106,-1.4707 3.34961,-1.4707 0.27844,0 2.43941,1.8264 4.80078,4.0585 17.83378,16.8574 42.718,24.9415 76.77344,24.9415 35.69272,0 78.65598,-10.0738 104.41992,-24.4844 3.45766,-1.9336 6.82312,-3.5156 7.47656,-3.5156 0.65348,0 3.84051,2.8373 7.08399,6.3046 9.50131,10.157 19.21576,13.9263 36.03515,13.9883 11.32411,0.042 18.21206,-1.0472 44,-6.9609 40.85666,-9.3692 52.82179,-11.2879 70.5,-11.3106 6.6,-0.01 16.05003,0.6516 21,1.4649 18.25807,2.9999 23.94954,2.0917 44.5,-7.1016 8.25094,-3.691 8.89555,-3.8138 22,-4.1797 9.66369,-0.2699 18.24959,0.2158 30.21292,1.709 19.9755,2.4933 36.0206,2.691 44.3261,0.5469 15.2392,-3.9338 22.5834,-9.4691 40.7266,-30.6934 14.0093,-16.3884 12.9375,-15.9392 22.5117,-9.4199 19.0779,12.9906 34.2321,18.988 48.2227,19.084 10.1548,0.07 14.1164,-1.6425 21.1172,-9.127 8.6527,-9.2504 21.8808,-33.9498 21.8808,-40.8593 0,-9.0289 -8.2841,-17.2196 -32.8105,-32.4336 -8.4128,-5.2186 -16.6169,-10.7798 -18.2324,-12.3594 -5.5153,-5.3921 -10.4122,-25.7097 -11.5586,-47.9609 -0.7344,-14.2549 0.6287,-32.0015 4.1699,-54.2832 10.788,-67.87843 12.0909,-82.56637 14.9238,-168.40825 2.4727,-74.92599 4.3864,-108.89758 9.0684,-161 9.2307,-102.72249 28.2226,-258.1335 36.0722,-295.17578 1.5077,-7.09156 1.5073,-8.41033 0,-17.33203 -4.0385,-23.90358 -9.7793,-34.98592 -47.7812,-92.24219 -17.0089,-25.62676 -33.455,-51.10055 -36.5469,-56.60937 -16.1896,-28.84521 -21.6635,-55.33661 -14.8027,-71.64063 2.5156,-5.97802 2.665,-7.06213 1.8691,-13.5 -0.4759,-3.84999 -0.8388,-12.175 -0.8086,-18.5 0.07,-14.17501 1.9089,-20.064 15.8496,-50.742184 16.9804,-37.367449 18.9085,-47.523152 14.9473,-78.7636722 -2.2633,-17.8455308 -2.241,-48.6335608 0.041,-57.4511718 0.919,-3.55135 2.444,-7.321565 3.3887,-8.378906 0.9448,-1.057331 6.4418,-5.084989 12.2168,-8.949219 18.1853,-12.168333 28.6339,-20.495687 36.8926,-29.404297 l 8.0019,-8.63086 5.752,4.41016 c 3.1638,2.42567 8.0248,6.16183 10.8027,8.30273 6.5763,5.06822 13.8278,8.247789 22.084,9.685548 5.6709,0.987549 6.8813,0.937051 8.166,-0.347656 1.3442,-1.344223 1.324,-2.140324 -0.1836,-7.326172 -3.2828,-11.29256 -9.003,-20.58621 -23.8281,-38.71289 -5.0529,-6.17824 -11.8875,-14.56546 -15.1875,-18.63867 -14.7361,-18.18887 -53.3519,-59.77144 -58.3164,-62.79688 -2.0259,-1.23458 -10.4506,-4.50228 -18.7207,-7.26172 l -15.0352,-5.01757 -3.6172,-7.3086 c -6.9576,-14.0612 -21.4093,-29.31612 -35.9492,-37.94531 -10.7705,-6.39207 -24.6468,-9.81613 -37.8633,-9.56836 z m 1.6426,0.88867 c 18.9261,-0.12807 36.582,7.40517 52.0977,22.30078 9.8443,9.45105 14.4734,15.48184 19.2695,25.10157 l 3.5078,7.03515 12.4922,4.33399 c 23.6518,8.20558 21.4489,6.81421 37.2715,23.54297 20.7126,21.89877 33.4088,36.12295 45.0078,50.42578 5.6175,6.9269 13.514,16.67267 17.5488,21.65625 4.0349,4.98358 9.3364,12.43554 11.7813,16.56054 4.6678,7.87517 9.0382,20.12963 7.8593,22.037112 -0.8827,1.428269 -8.9329,0.387125 -16.1211,-2.085937 -5.3232,-1.831465 -11.5572,-5.815815 -23.3554,-14.921875 -3.575,-2.75925 -6.9564,-5.01977 -7.5137,-5.02344 -0.5572,-0.004 -2.9665,2.49581 -5.3555,5.55469 -6.0695,7.77131 -16.7729,16.627015 -35.5586,29.419922 -8.9148,6.070911 -16.8381,12.212123 -17.7343,13.746094 -0.8911,1.52502 -2.1797,5.473437 -2.8633,8.773437 -1.9205,9.270731 -1.688,38.544116 0.4473,56.4550782 3.7051,31.0793688 1.5198,42.4985808 -14.9297,78.0449218 -14.6067,31.563757 -17.058,40.093667 -16.084,55.945317 0.3568,5.80535 0.8988,12.83974 1.2051,15.63281 0.4527,4.1297 0.044,6.2779 -2.1954,11.5 -5.3787,12.54822 -2.9889,32.96783 6.4122,54.77344 5.9856,13.88383 15.2293,29.0336 43.6308,71.50586 14.4163,21.55853 28.7062,43.45976 31.7559,48.66992 9.5088,16.24512 14.7734,30.0582 17.4531,45.79687 1.4575,8.56006 1.4542,9.95345 -0.039,17 -7.8442,37.01677 -26.7844,191.97748 -36.0781,295.17578 -4.59,50.96708 -6.5461,85.81991 -9.0664,161.5 -2.8283,84.92773 -4.2028,100.62974 -14.4394,164.98045 -6.8205,42.8757 -6.3795,69.5343 1.5664,94.6875 3.2829,10.3925 4.572,11.6527 24.4492,23.9024 15.2392,9.3914 27.695,19.6252 30.5097,25.0683 2.6527,5.1299 1.8033,10.1277 -3.4199,20.1016 -10.797,20.6173 -16.1977,27.9371 -23.9863,32.5156 -4.0434,2.377 -5.7335,2.7435 -12.666,2.7344 -13.6022,-0.019 -28.8415,-5.9452 -47.4317,-18.4453 l -9.3066,-6.2578 -2.6309,1.9394 c -1.4468,1.0663 -6.2149,6.1759 -10.5957,11.3555 -4.3808,5.1796 -11.3558,12.8254 -15.5,16.9902 -16.3064,16.3877 -32.3414,19.7384 -71.0488,14.8438 -11.85221,-1.4988 -20.28102,-1.9793 -29.98632,-1.7071 l -13.5,0.3789 -13.5,5.8575 c -16.26361,7.056 -21.97446,7.7942 -39.05078,5.0468 -8.75449,-1.4085 -14.25215,-1.6493 -26.73438,-1.1699 -17.52068,0.6729 -26.50413,2.1365 -59.21484,9.6485 -27.1039,6.2244 -29.92319,6.7745 -41.36133,8.0703 -19.48569,2.2073 -34.70625,-2.6657 -45.29297,-14.502 l -5.70312,-6.375 -11.74805,5.8887 c -27.41945,13.745 -59.20474,21.4083 -93.89453,22.6367 -37.92057,1.3427 -62.804,-5.8525 -82.76758,-23.9316 -2.97751,-2.6965 -5.93451,-4.6726 -6.57227,-4.3926 -46.26035,20.3095 -81.1831,32.4458 -124.08203,43.1211 -36.27264,9.0263 -74.00314,15.1595 -107.57812,17.4883 -16.48339,1.1432 -54.14476,1.119 -70.42383,-0.045 -28.17082,-2.0148 -57.04262,-7.0809 -66.99805,-11.7558 -6.61145,-3.1046 -12.57812,-7.6413 -12.57812,-9.5625 0,-3.499 34.62817,-11.8763 77,-18.6289 62.57049,-9.9716 77.05357,-14.2512 144.5,-42.7012 13.75004,-5.8 30.81985,-12.749 37.93164,-15.4414 7.11182,-2.6923 13.56756,-5.4249 14.34766,-6.0723 1.04817,-0.8699 1.3257,-3.0184 1.0625,-8.2304 -0.31484,-6.2332 -0.83699,-7.8132 -4.49024,-13.5977 -27.00654,-42.7618 -41.04371,-113.1608 -37.375,-187.43945 3.39496,-68.73581 16.90569,-132.83124 38.9375,-184.71875 13.03109,-30.68969 22.42331,-44.71395 50.13477,-74.86914 31.15619,-33.90368 46.0407,-60.59474 77.05078,-138.16406 28.41464,-71.07696 49.87897,-116.71437 74.18164,-157.72266 9.91166,-16.7249 14.23508,-22.94823 38.30859,-55.13476 19.92378,-26.63834 24.35367,-33.57278 30.02149,-47.01172 4.49608,-10.66061 7.04446,-20.99869 9.41211,-38.17188 6.27957,-45.54776 17.64796,-79.82368 35.7246,-107.70703 7.1991,-11.10463 11.34319,-16.1189 24.82813,-30.04101 16.04421,-16.56435 18.42383,-22.23484 18.42383,-43.90821 0,-22.726363 -4.2332,-39.888516 -20.98047,-85.050777 -15.69944,-42.336673 -17.19296,-48.563099 -17.1543,-71.5 0.0151,-8.799999 0.31858,-19.154164 0.67578,-23.009765 0.36435,-3.935271 0.16506,-9.623812 -0.45312,-12.96875 -1.28984,-6.977341 -4.87238,-11.245241 -17.08789,-20.351558 -15.30966,-11.41295 -21.48388,-18.58067 -25.37891,-29.46485 l -2.2207,-6.20508 -11.44922,-1.13867 c -9.98143,-0.99196 -14.95,-1.88392 -22.20117,-3.98828 -0.9625,-0.27934 -1.75,-1.13628 -1.75,-1.9043 0,-1.3865 30.28045,-25.95258 57.92187,-46.99218 7.93138,-6.03707 20.53135,-16.7618 28,-23.83204 7.46861,-7.07025 15.82814,-14.15313 18.57813,-15.74023 7.47847,-4.31603 14.67077,-4.04453 29.46094,1.11328 22.46645,7.83485 28.38247,7.57491 58.53906,-2.58008 35.05697,-11.80512 44.52275,-12.79229 71.33789,-7.4375 8.26269,1.64999 17.64294,2.9896 20.84375,2.97657 13.61835,-0.0556 29.27255,-10.6904 49.37698,-33.54297 11.3424,-12.89284 15.745,-15.65541 27.9414,-17.5293 3.5864,-0.55103 7.1358,-0.83761 10.6406,-0.86133 z m 12.2188,1053.02149 c -0.3656,0.0534 -0.6954,0.48362 -1.2071,1.32031 -6.206,10.14871 -12.1667,18.25602 -22.1426,30.11523 -14.6612,17.42918 -18.8413,23.03017 -24.2382,32.47657 -3.8598,6.75579 -4.2715,8.12043 -4.2715,14.17773 0,8.07882 1.3092,9.84034 7.3222,9.85742 10.5507,0.0302 21.8743,5.06024 30.2266,13.42774 10.9253,10.94509 13.8633,20.59003 13.7266,45.06054 -0.1833,32.84482 -6.6351,59.155 -22.9063,93.40035 -30.63865,64.4842 -83.33814,116.936 -149.00584,148.3047 -5.6948,2.7204 -11.03219,5.9108 -11.85938,7.0918 -2.29232,3.2728 -1.99049,12.2165 0.4961,14.7032 1.72785,1.7277 3.32675,1.9992 11.75,1.9921 5.36251,0 13.80003,-0.4605 18.75,-1.0136 13.25733,-1.4814 26.83551,-4.343 57,-12.0078 32.34191,-8.2182 46.30802,-10.8854 61.07812,-11.6661 19.3595,-1.0232 32.3892,1.9673 47.4707,10.8926 12.6539,7.4886 16.3245,7.8487 19.3984,1.9043 2.9324,-5.6706 1.5158,-21.2362 -2.6894,-29.5449 -1.0977,-2.1689 -6.4822,-8.6133 -11.9649,-14.3203 -6.7152,-6.9902 -10.8371,-12.2302 -12.6308,-16.0567 -2.5703,-5.4829 -2.6569,-6.2525 -2.5195,-22.1796 0.099,-11.4674 0.9416,-22.4478 2.7636,-36 12.2238,-90.92184 16.3142,-140.74924 15.2676,-186.00005 -0.5689,-24.59739 -2.0393,-40.14326 -5.2793,-55.84765 -3.194,-15.4811 -10.0956,-36.09135 -13.1113,-39.15235 -0.6562,-0.66604 -1.0583,-0.98899 -1.4238,-0.93554 z m 0.5136,2.43554 c 1.4851,0 6.9196,13.73258 10.1172,25.56836 6.6545,24.63099 9.0382,51.61422 8.168,92.43164 -0.9348,43.85458 -4.6148,82.16851 -16.3301,170.00005 -0.8804,6.6 -1.6517,19.1999 -1.7148,28 -0.1096,15.4186 -0.015,16.2102 2.5918,21.7734 1.8438,3.9351 5.8816,9.0798 12.6835,16.1601 5.4883,5.713 10.8533,12.1147 11.9219,14.2266 4.0826,8.0684 5.5517,23.8062 2.7305,29.2617 -2.2961,4.4401 -4.8198,4.4112 -13.375,-0.1601 -23.3914,-12.4987 -25.9806,-13.224 -47.166,-13.2051 -18.7841,0.018 -27.8811,1.5833 -66.51955,11.4473 -14.86738,3.7954 -33.31989,8.0773 -41.00586,9.5136 -9.01282,1.6845 -19.31248,2.8164 -29.00977,3.1895 -13.34955,0.5135 -15.22798,0.3872 -16.75,-1.1348 -2.06343,-2.0634 -2.37407,-11.3136 -0.46484,-13.8515 0.68749,-0.914 6.30314,-4.133 12.47851,-7.1524 32.66158,-15.9696 58.53432,-34.1336 84.13672,-59.0683 27.10859,-26.4016 45.47859,-51.2752 61.57029,-83.3692 15.9262,-31.76401 23.5017,-57.83069 25.6367,-88.2246 1.7734,-25.2449 -1.231,-41.84093 -9.5488,-52.74804 -7.5854,-9.9467 -19.9014,-16.7358 -32.3672,-17.8418 -3.6606,-0.32478 -7.2187,-1.03419 -7.9062,-1.57617 -0.7782,-0.6135 -1.25,-3.52104 -1.25,-7.70313 0,-6.29499 0.3192,-7.24675 5.0547,-15.12695 5.5871,-9.29741 11.7096,-17.39175 24.5175,-32.41016 4.6906,-5.5 11.2612,-14.04999 14.6016,-19 3.3403,-4.94997 6.5796,-9 7.1992,-9 z m -0.061,18 c -0.6538,0 -2.9531,2.70002 -5.1094,6 -2.1563,3.30002 -8.8226,11.79054 -14.8125,18.86914 -14.4289,17.05119 -19.5731,23.864 -18.6504,24.69141 0.4186,0.37542 3.3978,1.49234 6.6211,2.48242 7.0791,2.17452 15.9635,7.75948 20.3965,12.82227 4.3655,4.98591 8.7522,13.89162 11.207,22.75 2.827,10.2014 4.425,31.55608 3.6543,48.84375 -1.6454,36.90742 -9.6314,67.16921 -27.0605,102.54106 -26.2169,53.2064 -58.61547,90.4206 -106.55862,122.4003 -6.875,4.5859 -12.6658,8.7846 -12.86914,9.3282 -0.73629,1.9702 21.08046,-2.6615 51.11523,-10.8496 38.27641,-10.4337 56.45443,-12.9569 75.23833,-10.4434 12.0989,1.6189 18.8752,4.0584 29.3652,10.5781 8.6346,5.3666 12.1504,6.628 12.1504,4.3555 0,-0.6224 -4.3875,-5.6999 -9.75,-11.2813 -5.3625,-5.5814 -11.0098,-12.4847 -12.5488,-15.3418 -7.5278,-13.9735 -7.9838,-34.9669 -1.8536,-85.246 7.7695,-63.72326 9.1622,-75.56248 11.1172,-94.49028 5.6283,-54.4913 5.1226,-95.58676 -1.582,-128.50977 -2.1233,-10.42639 -8.634,-29.5 -10.0703,-29.5 z"
         style="fill:#733e87;stroke-width:33.13058472"
         inkscape:connector-curvature="0" />
      <path
         style="fill:#f0ecec;stroke-width:8.76580048"
         d="m 62.36707,344.03927 c -7.45353,-0.53311 -15.09226,-1.87343 -17.7263,-3.11033 -1.74928,-0.82143 -3.32796,-2.0215 -3.32796,-2.52982 0,-0.92578 9.16203,-3.14248 20.37291,-4.92911 16.55511,-2.63829 20.38709,-3.77068 38.23229,-11.29808 3.63803,-1.53458 8.15414,-3.37296 10.0358,-4.08532 1.88167,-0.71234 3.5901,-1.43534 3.7965,-1.60663 0.27733,-0.23016 0.35069,-0.79851 0.28105,-2.17752 -0.0833,-1.6492 -0.22135,-2.06738 -1.18794,-3.59786 -7.14548,-11.31406 -10.85959,-29.94054 -9.88891,-49.59344 0.89825,-18.18635 4.47299,-35.14471 10.30224,-48.87328 3.44781,-8.11999 5.9327,-11.8309 13.26469,-19.80946 8.24341,-8.97036 12.18175,-16.03232 20.3865,-36.55587 7.51804,-18.80578 13.19725,-30.88071 19.62733,-41.73082 2.62246,-4.42513 3.76639,-6.07148 10.13584,-14.5875 5.2715,-7.048058 6.44308,-8.882779 7.94269,-12.438493 1.18959,-2.820623 1.86414,-5.556099 2.49058,-10.099845 1.66147,-12.05118 4.66948,-21.11997 9.45226,-28.497442 1.90476,-2.938098 3.00105,-4.26456 6.56894,-7.948113 4.24503,-4.382648 4.87473,-5.883375 4.87473,-11.617785 0,-6.013016 -1.12012,-10.553671 -5.55117,-22.502852 -4.15381,-11.201578 -4.54906,-12.848987 -4.53883,-18.917709 0.004,-2.328333 0.0844,-5.067982 0.17891,-6.08811 0.0964,-1.041207 0.0439,-2.546302 -0.11966,-3.431318 -0.34127,-1.846087 -1.28932,-2.975141 -4.52134,-5.384522 -4.05068,-3.019676 -5.68418,-4.916209 -6.71474,-7.795982 l -0.58751,-1.641734 -3.0296,-0.301086 c -2.64092,-0.262456 -3.95534,-0.498631 -5.87388,-1.055409 -0.25466,-0.07391 -0.46302,-0.300633 -0.46302,-0.503838 0,-0.366845 8.01139,-6.866663 15.32485,-12.43339 2.09851,-1.597308 5.43226,-4.43474 7.40834,-6.305407 1.97607,-1.870672 4.18817,-3.744782 4.91577,-4.164702 1.97868,-1.14195 3.88172,-1.07001 7.79495,0.29466 5.94425,2.07297 7.50946,2.00396 15.48839,-0.68288 9.27549,-3.12344 11.7799,-3.38453 18.87474,-1.96774 2.18617,0.43656 4.66776,0.79092 5.51464,0.78747 3.60319,-0.0147 7.74543,-2.82855 13.06472,-8.87496 3.00102,-3.41123 4.16582,-4.14196 7.39277,-4.63776 6.07293,-0.93308 11.73398,1.00143 16.59938,5.6724 2.60466,2.50059 3.82958,4.09619 5.09854,6.64141 l 0.92816,1.86163 3.30518,1.14667 c 6.25787,2.17106 5.67478,1.80275 9.86118,6.228899 5.48021,5.79405 8.83943,9.557674 11.90834,13.341964 1.48629,1.832742 3.57581,4.411091 4.64335,5.729663 1.06757,1.318572 2.47031,3.290374 3.11719,4.381781 1.23503,2.083638 2.39136,5.32603 2.07944,5.830718 -0.23354,0.377896 -2.36347,0.102169 -4.26532,-0.552162 -1.40845,-0.484576 -3.058,-1.538343 -6.17961,-3.947655 -0.94588,-0.730051 -1.84041,-1.328163 -1.98786,-1.329134 -0.14743,-0.0011 -0.78523,0.660411 -1.41732,1.469739 -1.60589,2.056159 -4.43762,4.39904 -9.40798,7.78383 -2.35871,1.606262 -4.45505,3.231214 -4.69217,3.637077 -0.23577,0.403494 -0.57664,1.448003 -0.7575,2.321128 -0.50814,2.452881 -0.44691,10.198174 0.11805,14.937116 0.98031,8.223083 0.40238,11.244374 -3.94988,20.649343 -3.86467,8.351247 -4.5135,10.607976 -4.2558,14.802051 0.0944,1.536006 0.23791,3.397379 0.31893,4.136382 0.1198,1.092652 0.0114,1.661027 -0.581,3.042708 -1.42314,3.320053 -0.7906,8.722723 1.69675,14.492124 1.58369,3.67343 4.02934,7.681555 11.5439,18.91901 3.81431,5.704027 7.59531,11.498842 8.40221,12.877363 2.51587,4.298188 3.90867,7.953023 4.61767,12.117213 0.38563,2.264849 0.38479,2.633519 -0.0103,4.497919 -2.07544,9.79402 -7.08668,50.79401 -9.54563,78.09856 -1.21444,13.48505 -1.73215,22.70652 -2.39898,42.73021 -0.74832,22.47045 -1.11197,26.62523 -3.8204,43.65135 -1.80459,11.3442 -1.68791,18.39717 0.41444,25.05229 0.8686,2.74968 1.20986,3.08329 6.46904,6.32436 4.03204,2.48481 7.32758,5.19271 8.07233,6.63287 0.70186,1.35728 0.47683,2.67959 -0.90514,5.31852 -2.8567,5.45499 -4.28535,7.39179 -6.34608,8.60319 -1.06982,0.62891 -1.51699,0.72538 -3.35121,0.72297 -3.59892,-0.005 -7.63114,-1.57265 -12.5498,-4.87997 l -2.46235,-1.65568 -0.69601,0.51292 c -0.3828,0.28212 -1.64436,1.6342 -2.80344,3.00463 -1.15909,1.37044 -3.00456,3.39331 -4.10105,4.49525 -4.31442,4.33591 -8.55694,5.22221 -18.79827,3.92718 -3.13589,-0.39656 -5.36602,-0.52343 -7.93388,-0.45141 l -3.57187,0.1002 -3.57188,1.54969 c -4.30308,1.86693 -5.81415,2.06222 -10.33226,1.3353 -2.31629,-0.37266 -3.77105,-0.43632 -7.07364,-0.30948 -4.63568,0.17804 -7.01231,0.56528 -15.66701,2.55283 -7.17125,1.64687 -7.9175,1.79247 -10.94385,2.13532 -5.15558,0.58402 -9.18245,-0.70535 -11.98352,-3.83704 l -1.50875,-1.68682 -3.10849,1.55823 c -7.25473,3.6367 -15.66455,5.66412 -24.84289,5.98914 -10.03315,0.35525 -16.61678,-1.54829 -21.89881,-6.33172 -0.7878,-0.71345 -1.57043,-1.23656 -1.73918,-1.16247 -12.23971,5.37355 -21.47976,8.58467 -32.8301,11.40917 -9.59714,2.38821 -19.57978,4.01109 -28.46316,4.62722 -4.36123,0.3025 -14.32607,0.29607 -18.63324,-0.0119 z M 238.03051,310.4501 c 3.50767,-0.39195 7.10023,-1.14866 15.08125,-3.17667 8.55713,-2.17437 12.25239,-2.88017 16.1603,-3.08673 5.12219,-0.27072 8.56941,0.52019 12.55972,2.88168 3.34801,1.98136 4.31948,2.07674 5.13279,0.50395 0.77586,-1.50034 0.40092,-5.61872 -0.71171,-7.81706 -0.29043,-0.57385 -1.71489,-2.27883 -3.1655,-3.78881 -1.77675,-1.84949 -2.86734,-3.23585 -3.34192,-4.24828 -0.68006,-1.45068 -0.70321,-1.65441 -0.66688,-5.86848 0.0262,-3.03409 0.24918,-5.93929 0.73125,-9.525 3.23421,-24.0564 4.31631,-37.2399 4.03939,-49.2125 -0.15052,-6.50807 -0.53924,-10.62096 -1.39649,-14.77608 -0.84508,-4.09604 -2.67142,-9.54945 -3.46933,-10.35934 -0.34723,-0.35245 -0.42515,-0.34105 -0.6959,0.10171 -1.64201,2.68517 -3.21929,4.83034 -5.85874,7.96808 -3.87913,4.61148 -4.985,6.0932 -6.41295,8.59256 -1.02124,1.78747 -1.13007,2.14876 -1.13007,3.75142 0,2.13751 0.34618,2.6036 1.93713,2.60813 2.79154,0.008 5.78782,1.33898 7.99771,3.55288 2.89066,2.89589 3.668,5.44761 3.63183,11.9221 -0.0485,8.69018 -1.75585,15.65134 -6.06093,24.7121 -8.10648,17.06142 -22.0499,30.93919 -39.42448,39.23882 -1.50675,0.71978 -2.91862,1.56433 -3.13748,1.8768 -0.60651,0.8659 -0.52669,3.23207 0.13122,3.88998 0.45716,0.45715 0.88021,0.52888 3.10886,0.527 1.41883,0 3.65125,-0.12192 4.96093,-0.26826 z"
         id="path828"
         inkscape:connector-curvature="0" />
    </g>
  </g>
</svg>